<?xml version="1.0" encoding="utf-8"?>
<!-- Generator: Adobe Illustrator 26.0.1, SVG Export Plug-In . SVG Version: 6.00 Build 0)  -->
<svg version="1.1" id="Calque_1" xmlns="http://www.w3.org/2000/svg" xmlns:xlink="http://www.w3.org/1999/xlink" x="0px" y="0px"
	 viewBox="0 0 8096.68 1805.62" style="enable-background:new 0 0 8096.68 1805.62;" xml:space="preserve">
<style type="text/css">
	.st0{fill:#144C33;}
	.st1{fill:#07E283;stroke:#144C33;stroke-width:2.5007;stroke-miterlimit:10;}
	.st2{fill:#07E283;}
</style>
<path class="st0" d="M1260.89,1690.85c-335.87,32.35-576.04-131.04-746.33-242.27c-73.89-48.26-122.48-103.24-174.66-85.5
	c-41.1,13.97-67.82,88.55-49.12,131.3c11.88,27.17,50.35,67.38,111.79,54.3c48.51-10.3,110.33-50.98,145.43-77.8l149.42,91.89
	c-73.06,83.49-182.37,115.42-254.56,130.75c-122.88,26.11-268.6-20.38-320.01-137.9c-52.64-120.35,13.27-267.76,111.03-333.12
	c116.44-77.84,241.03,6.02,373.45,94.08c184.96,123.01,440.42,294.64,809.04,180.11c171.27-53.21,304.66-222.01,356.85-451.56
	c60.88-267.84-4.78-542.69-163.39-683.93c-163.69-145.75-327.01-173.94-499.28-86.15c-154.15,78.54-181.62,329.5-210.71,595.19
	c-19.77,180.54-43.75,408.84-107.86,560.08l-154.2-93.41c55.06-129.9,80.95-313.7,99.48-482.97
	c32.41-296.04,65.93-602.16,298.21-720.52c163.03-83.06,457.1-178.14,727.7,62.81c104.46,93.02,183.93,229.58,219.89,387.19
	c33.08,145.01,29.87,318.94-4.56,470.39c-65.03,286.07-285.49,524.4-513.23,595.15C1393.56,1671.24,1325.46,1684.63,1260.89,1690.85
	z"/>
<path class="st1" d="M1266.71,1699.61c-334.61,32.23-573.93-130.98-743.61-242.09c-73.63-48.21-122.05-103.12-174.03-85.41
	c-40.94,13.95-67.55,88.41-48.9,131.11c11.84,27.13,50.18,67.3,111.39,54.25c48.32-10.27,109.91-50.88,144.87-77.66l148.88,91.79
	c-72.77,83.36-181.67,115.22-253.58,130.51c-122.42,26.05-234.56-33.01-285.8-150.38c-52.47-120.19-19.89-254.77,77.49-320.02
	c115.99-77.7,240.14,6.06,372.08,94.03c184.3,122.87,438.85,294.32,806.07,180.03c170.62-53.09,303.48-221.63,355.42-450.84
	c60.6-267.45-4.88-541.92-162.93-682.99c-163.12-145.58-325.83-173.77-497.45-86.14c-153.56,78.39-180.87,328.99-209.79,594.3
	c-19.65,180.28-43.5,408.25-107.33,559.26l-153.65-93.31c54.82-129.7,80.58-313.24,99-482.26
	c32.22-295.61,65.55-601.29,296.94-719.43c162.4-82.9,412.6-131.23,682.25,109.44c104.09,92.91,178.06,225.21,213.92,382.6
	c32.99,144.81,32.32,301.28-1.95,452.51c-64.72,285.65-238.81,498.33-465.69,568.93
	C1398.88,1680.05,1331.04,1693.41,1266.71,1699.61z"/>
<g>
	<g>
		<path class="st2" d="M2360.44,1440.13c-41.3,0-72.71-10.76-94.24-32.29c-21.53-21.52-32.29-52.93-32.29-94.24V637.47
			c0-41.28,10.76-72.7,32.29-94.23c21.53-21.53,52.95-32.3,94.24-32.3h257.01c161.67,0,286.66,40.42,374.98,121.26
			c88.3,80.85,132.46,195.07,132.46,342.69c0,74.68-11.22,140.6-33.62,197.71c-22.41,57.11-55.14,105.65-98.19,145.63
			c-43.06,39.98-95.99,70.3-158.82,90.94c-62.83,20.66-135.1,30.97-216.81,30.97H2360.44z M2476.42,1243.75h126.53
			c46.56,0,86.76-5.7,120.59-17.13c33.81-11.41,61.94-28.11,84.35-50.07c22.41-21.96,39.11-49.64,50.09-83.04
			c10.98-33.39,16.48-72.92,16.48-118.62c0-90.49-22.41-157.71-67.22-201.65c-44.81-43.94-112.92-65.91-204.28-65.91h-126.53
			V1243.75z"/>
		<path class="st2" d="M3607.25,1455.94c-79.09,0-147.4-14.06-204.95-42.17c-57.55-28.11-101.71-67.64-132.46-118.62
			c-30.76-50.96-46.13-110.71-46.13-179.24c0-66.77,14.71-125.64,44.16-176.6c29.43-50.96,69.85-90.94,121.26-119.94
			c51.39-29,110.04-43.51,175.95-43.51c48.32,0,92.26,7.91,131.79,23.72c39.53,15.83,73.14,38.45,100.82,67.88
			c27.68,29.43,48.99,64.8,63.93,106.1s22.41,87.87,22.41,139.71c0,16.7-4.83,29.44-14.49,38.23c-9.66,8.79-24.6,13.17-44.81,13.17
			H3420.1v-112.04h291.28l-19.78,17.15c0-32.51-4.4-59.08-13.17-79.74c-8.79-20.66-21.75-36.02-38.88-46.13
			s-38.44-15.16-63.93-15.16c-27.24,0-50.96,6.37-71.17,19.12c-20.21,12.74-35.36,31.41-45.46,56.01s-15.16,55.36-15.16,92.26v10.54
			c0,63.27,13.82,108.08,41.51,134.45s70.52,39.53,128.52,39.53c19.32,0,41.51-2.19,66.55-6.59c25.04-4.39,48.99-10.98,71.84-19.77
			c22.83-8.79,42.6-10.33,59.3-4.61c16.68,5.72,29.65,15.16,38.88,28.33c9.22,13.19,14.49,28.78,15.81,46.8
			c1.32,18.02-2.64,34.93-11.85,50.74c-9.23,15.83-24.39,28.13-45.46,36.9c-29.89,14.06-62.18,24.82-96.88,32.29
			C3677.33,1452.21,3642.4,1455.94,3607.25,1455.94z"/>
		<path class="st2" d="M4274.16,1453.31c-29.87,0-56.01-7.91-78.42-23.72c-22.4-15.81-40.2-39.09-53.39-69.85L3955.2,928.75
			c-11.43-27.24-15.38-52.07-11.85-74.48c3.51-22.41,14.71-40.63,33.61-54.69c18.88-14.05,45.02-21.09,78.42-21.09
			c28.11,0,50.74,6.59,67.87,19.77c17.13,13.19,32.73,38.23,46.8,75.13l133.13,342.69h-44.81l139.71-344.01
			c14.05-35.15,29.86-59.52,47.43-73.14c17.57-13.62,41.74-20.43,72.51-20.43c26.35,0,47.65,7.04,63.91,21.09
			c16.26,14.06,26.14,32.29,29.65,54.69c3.51,22.41-0.87,47.24-13.17,74.48l-192.43,432.29c-13.19,30.76-30.76,53.82-52.72,69.2
			C4331.27,1445.61,4304.91,1453.31,4274.16,1453.31z"/>
		<path class="st2" d="M4817.15,686.24c-42.17,0-74.68-9.66-97.53-29c-22.85-19.32-34.26-47-34.26-83.03
			c0-36.9,11.41-65.02,34.26-84.35c22.85-19.32,55.36-29,97.53-29c41.28,0,73.36,9.68,96.21,29c22.85,19.32,34.28,47.45,34.28,84.35
			c0,36.02-11.43,63.7-34.28,83.03C4890.52,676.58,4858.44,686.24,4817.15,686.24z M4817.15,1450.68
			c-38.66,0-67.88-10.76-87.65-32.29c-19.77-21.53-29.65-52.95-29.65-94.24v-417.8c0-41.3,9.88-72.71,29.65-94.24
			c19.77-21.52,48.99-32.29,87.65-32.29c36.9,0,65.67,10.77,86.33,32.29c20.64,21.53,30.97,52.95,30.97,94.24v417.8
			c0,41.3-10.11,72.71-30.32,94.24C4883.92,1439.93,4854.94,1450.68,4817.15,1450.68z"/>
		<path class="st2" d="M5188.82,1453.31c-38.66,0-67.88-10.33-87.65-30.97c-19.77-20.64-29.65-49.86-29.65-87.65V897.12
			c0-37.79,9.88-66.99,29.65-87.65c19.77-20.64,48.12-30.97,85.01-30.97c36.02,0,63.93,10.33,83.69,30.97
			c19.77,20.66,29.65,49.86,29.65,87.65v61.94l-14.49-54.03c21.09-41.3,51.18-73.16,90.29-95.56
			c39.09-22.41,83.68-33.61,133.76-33.61c51.83,0,94.45,10.33,127.85,30.99c33.39,20.66,58.43,51.4,75.13,92.26
			c16.69,40.85,25.04,93.35,25.04,157.49v278.09c0,37.79-10.11,67.01-30.32,87.65s-49.21,30.97-86.98,30.97
			c-37.79,0-66.79-10.33-87-30.97s-30.3-49.86-30.3-87.65v-268.86c0-38.66-6.82-66.56-20.43-83.69
			c-13.62-17.13-33.61-25.69-59.97-25.69c-35.15,0-63.27,11.2-84.36,33.61c-21.09,22.41-31.62,52.5-31.62,90.27v254.37
			C5306.13,1413.77,5267.02,1453.31,5188.82,1453.31z"/>
		<path class="st2" d="M6131.19,1455.94c-39.53,0-79.29-3.08-119.27-9.22c-39.98-6.17-76.67-16.26-110.06-30.32
			c-21.1-8.77-36.26-20.85-45.48-36.23c-9.23-15.38-13.63-31.41-13.19-48.12c0.44-16.68,5.28-31.84,14.51-45.48
			c9.22-13.62,21.52-23.28,36.9-29c15.38-5.7,32.73-5.04,52.07,1.99c36.9,14.06,70.08,23.72,99.5,29c29.43,5.28,57.78,7.9,85.01,7.9
			c32.51,0,55.79-4.61,69.85-13.84c14.05-9.22,21.09-21.31,21.09-36.25c0-13.17-4.62-23.28-13.84-30.3
			c-9.23-7.02-22.2-11.87-38.88-14.51l-146.29-22.41c-54.49-9.66-96.66-29.86-126.53-60.62c-29.87-30.75-44.81-71.17-44.81-121.26
			c0-44.81,12.95-83.68,38.88-116.63c25.92-32.96,61.5-58.65,106.75-77.12c45.25-18.45,97.31-27.68,156.18-27.68
			c39.53,0,75.56,3.08,108.07,9.23c32.51,6.15,64.58,16.26,96.22,30.32c18.45,8.79,31.62,20.64,39.53,35.58
			c7.91,14.94,10.98,30.54,9.23,46.8c-1.76,16.26-7.47,31.19-17.13,44.81c-9.66,13.62-22.41,23.06-38.22,28.33
			c-15.83,5.28-33.4,3.96-52.72-3.96c-29-11.41-54.92-19.75-77.77-25.03c-22.85-5.28-43.94-7.91-63.26-7.91
			c-36.91,0-62.62,4.83-77.12,14.49c-14.49,9.66-21.74,22.41-21.74,38.22c0,10.55,4.16,19.78,12.52,27.7
			c8.34,7.91,20.42,13.17,36.25,15.79l146.3,23.72c57.11,9.68,100.6,29.02,130.47,58c29.87,29,44.81,68.53,44.81,118.62
			c0,71.17-27.25,126.53-81.72,166.07S6220.81,1455.94,6131.19,1455.94z"/>
		<path class="st2" d="M6866.62,1455.94c-65.02,0-119.07-10.33-162.13-30.97c-43.06-20.64-75.13-51.39-96.22-92.26
			c-21.09-40.85-31.62-92.04-31.62-153.55V964.33h-43.49c-28.13,0-50.31-7.47-66.56-22.41c-16.24-14.94-24.38-36.02-24.38-63.26
			c0-28.98,8.14-50.74,24.38-65.23c16.26-14.49,38.44-21.75,66.56-21.75h43.49v-83.04c0-37.79,10.09-66.99,30.3-87.65
			c20.21-20.64,49.21-30.97,87-30.97c37.79,0,66.77,10.33,86.98,30.97c20.21,20.66,30.32,49.86,30.32,87.65v83.04h108.07
			c28.13,0,50.09,7.26,65.91,21.75c15.81,14.49,23.72,36.25,23.72,65.23c0,27.24-7.91,48.32-23.72,63.26
			c-15.83,14.94-37.79,22.41-65.91,22.41h-108.07v206.92c0,32.51,7.47,56.46,22.4,71.84c14.94,15.38,39.09,23.06,72.49,23.06
			c13.17,0,25.47-1.3,36.9-3.94c11.42-2.64,21.98-4.39,31.64-5.28c14.05,0,25.69,4.62,34.93,13.84c9.22,9.23,13.84,30.1,13.84,62.61
			c0,26.36-4.18,48.54-12.52,66.56c-8.36,18.02-22.63,30.97-42.84,38.87c-13.19,5.28-30.1,9.44-50.74,12.52
			C6896.71,1454.4,6879.8,1455.94,6866.62,1455.94z"/>
		<path class="st2" d="M7414.89,1455.94c-72.05,0-134.88-13.62-188.47-40.85c-53.6-27.24-95.34-66.55-125.21-117.95
			c-29.87-51.4-44.81-111.82-44.81-181.23c0-52.72,8.34-99.95,25.04-141.69c16.69-41.73,40.85-77.54,72.49-107.42
			c31.62-29.87,69.41-52.49,113.34-67.87c43.94-15.38,93.15-23.07,147.62-23.07c72.05,0,134.88,13.63,188.47,40.87
			s95.12,66.34,124.55,117.3c29.43,50.96,44.16,111.58,44.16,181.88c0,52.72-8.36,99.73-25.04,141.03
			c-16.7,41.3-40.87,77.1-72.49,107.42c-31.64,30.32-69.42,53.15-113.34,68.53C7517.25,1448.25,7468.49,1455.94,7414.89,1455.94z
			 M7414.89,1280.66c23.72,0,44.59-5.48,62.61-16.48c18-10.98,32.27-28.78,42.82-53.38c10.55-24.6,15.83-56.24,15.83-94.9
			c0-58.86-11.43-101.25-34.28-127.19c-22.85-25.92-51.83-38.88-86.98-38.88c-23.72,0-44.81,5.72-63.26,17.13
			c-18.46,11.43-32.96,29.22-43.51,53.38c-10.55,24.17-15.81,56.03-15.81,95.56c0,58,11.41,99.95,34.26,125.87
			C7349.42,1267.71,7378.85,1280.66,7414.89,1280.66z"/>
	</g>
</g>
</svg>
