<?xml version="1.0" encoding="utf-8"?>
<!-- Generator: Adobe Illustrator 26.0.1, SVG Export Plug-In . SVG Version: 6.00 Build 0)  -->
<svg version="1.1" id="Calque_1" xmlns="http://www.w3.org/2000/svg" xmlns:xlink="http://www.w3.org/1999/xlink" x="0px" y="0px"
	 viewBox="0 0 400 400" style="enable-background:new 0 0 400 400;" xml:space="preserve">
<style type="text/css">
	.st0{fill:#07E283;stroke:#07E283;stroke-width:16.3688;stroke-miterlimit:10;}
</style>
<path class="st0" d="M246.43,391.42c-70.45,6.5-121.11-32.7-157.03-59.41c-15.58-11.59-25.86-24.67-36.79-20.67
	c-8.61,3.15-14.1,20.6-10.11,30.71c2.53,6.43,10.67,16.01,23.55,13.13c10.17-2.26,23.08-11.62,30.41-17.81l31.5,22.09
	c-15.21,19.39-38.11,26.54-53.24,29.9c-25.75,5.74-49.47-8.53-60.44-36.33c-11.23-28.47-4.56-60.05,15.86-75.09
	c24.32-17.92,50.6,2.21,78.53,23.35c39.01,29.53,92.89,70.72,170.09,45c35.87-11.95,63.62-51.2,74.22-104.99
	c12.37-62.77-1.82-127.6-35.33-161.33c-34.58-34.8-68.9-41.97-104.93-21.89c-32.24,17.96-37.63,76.87-43.33,139.24
	c-3.88,42.38-8.57,95.97-21.79,131.32l-32.51-22.47c11.36-30.36,16.52-73.49,20.15-113.22c6.36-69.49,12.93-141.35,61.51-168.42
	c34.09-18.99,86.74-29.56,143.9,27.98c22.07,22.21,37.85,53.6,45.63,90.77c7.16,34.2,7.25,71.04,0.25,106.53
	c-13.22,67.04-49.58,116.55-97.28,132.44C274.25,387.25,259.98,390.17,246.43,391.42z"/>
</svg>
