<?xml version="1.0" encoding="utf-8"?>
<!-- Generator: Adobe Illustrator 26.0.1, SVG Export Plug-In . SVG Version: 6.00 Build 0)  -->
<svg version="1.1" id="Calque_1" xmlns="http://www.w3.org/2000/svg" xmlns:xlink="http://www.w3.org/1999/xlink" x="0px" y="0px"
	 viewBox="0 0 400 400" style="enable-background:new 0 0 400 400;" xml:space="preserve">
<style type="text/css">
	.st0{fill:#07E283;stroke:#07E283;stroke-width:15.9438;stroke-miterlimit:10;}
</style>
<path class="st0" d="M245.51,381.4c-70.45,6.5-120.91-30.47-156.68-55.65c-15.52-10.93-25.74-23.3-36.68-19.45
	c-8.62,3.03-14.19,19.62-10.25,29.2c2.5,6.09,10.59,15.14,23.48,12.35c10.17-2.19,23.13-11.14,30.48-17.05l31.39,20.82
	c-15.29,18.48-38.21,25.37-53.35,28.63c-25.77,5.57-49.41-7.87-60.24-34.2c-11.09-26.97-4.28-56.97,16.2-71.35
	c24.4-17.12,50.57,1.86,78.39,21.79c38.86,27.84,92.52,66.69,169.81,41.92c35.91-11.51,63.83-48.89,74.68-100
	c12.66-59.64-1.22-121.11-34.56-152.96c-34.4-32.87-68.68-39.51-104.79-20.29c-32.31,17.2-37.97,73.14-43.96,132.36
	c-4.07,40.25-9.01,91.14-22.4,124.75l-32.39-21.17c11.5-28.87,16.86-69.83,20.67-107.56c6.68-65.99,13.59-134.23,62.27-160.15
	c34.17-18.19,86.84-28.46,143.71,25.88c21.95,20.98,37.58,50.7,45.19,85.94c7,32.43,6.92,67.39-0.25,101.12
	c-13.53,63.7-50.11,110.86-97.86,126.16C273.33,377.3,259.05,380.15,245.51,381.4z"/>
</svg>
